<svg id="visual" viewBox="0 0 900 600" width="900" height="600" xmlns="http://www.w3.org/2000/svg" xmlns:xlink="http://www.w3.org/1999/xlink" version="1.1"><rect x="0" y="0" width="900" height="600" fill="#000000"></rect><path d="M781 600L782 600L782 574L791 574L791 548L779 548L779 522L779 522L779 496L788 496L788 470L793 470L793 443L783 443L783 417L783 417L783 391L787 391L787 365L795 365L795 339L788 339L788 313L784 313L784 287L787 287L787 261L788 261L788 235L786 235L786 209L792 209L792 183L789 183L789 157L772 157L772 130L775 130L775 104L773 104L773 78L795 78L795 52L789 52L789 26L794 26L794 0L900 0L900 26L900 26L900 52L900 52L900 78L900 78L900 104L900 104L900 130L900 130L900 157L900 157L900 183L900 183L900 209L900 209L900 235L900 235L900 261L900 261L900 287L900 287L900 313L900 313L900 339L900 339L900 365L900 365L900 391L900 391L900 417L900 417L900 443L900 443L900 470L900 470L900 496L900 496L900 522L900 522L900 548L900 548L900 574L900 574L900 600L900 600Z" fill="#d030d0"></path><path d="M809 600L815 600L815 574L804 574L804 548L800 548L800 522L804 522L804 496L819 496L819 470L821 470L821 443L812 443L812 417L802 417L802 391L801 391L801 365L803 365L803 339L814 339L814 313L806 313L806 287L819 287L819 261L801 261L801 235L810 235L810 209L820 209L820 183L802 183L802 157L812 157L812 130L802 130L802 104L802 104L802 78L801 78L801 52L806 52L806 26L804 26L804 0L900 0L900 26L900 26L900 52L900 52L900 78L900 78L900 104L900 104L900 130L900 130L900 157L900 157L900 183L900 183L900 209L900 209L900 235L900 235L900 261L900 261L900 287L900 287L900 313L900 313L900 339L900 339L900 365L900 365L900 391L900 391L900 417L900 417L900 443L900 443L900 470L900 470L900 496L900 496L900 522L900 522L900 548L900 548L900 574L900 574L900 600L900 600Z" fill="#a562e9"></path><path d="M844 600L846 600L846 574L840 574L840 548L835 548L835 522L843 522L843 496L831 496L831 470L846 470L846 443L834 443L834 417L846 417L846 391L831 391L831 365L832 365L832 339L843 339L843 313L832 313L832 287L834 287L834 261L834 261L834 235L836 235L836 209L829 209L829 183L836 183L836 157L833 157L833 130L838 130L838 104L841 104L841 78L832 78L832 52L843 52L843 26L835 26L835 0L900 0L900 26L900 26L900 52L900 52L900 78L900 78L900 104L900 104L900 130L900 130L900 157L900 157L900 183L900 183L900 209L900 209L900 235L900 235L900 261L900 261L900 287L900 287L900 313L900 313L900 339L900 339L900 365L900 365L900 391L900 391L900 417L900 417L900 443L900 443L900 470L900 470L900 496L900 496L900 522L900 522L900 548L900 548L900 574L900 574L900 600L900 600Z" fill="#777df3"></path><path d="M871 600L861 600L861 574L869 574L869 548L862 548L862 522L865 522L865 496L868 496L868 470L862 470L862 443L866 443L866 417L865 417L865 391L863 391L863 365L869 365L869 339L860 339L860 313L859 313L859 287L860 287L860 261L870 261L870 235L870 235L870 209L861 209L861 183L869 183L869 157L869 157L869 130L859 130L859 104L862 104L862 78L859 78L859 52L864 52L864 26L871 26L871 0L900 0L900 26L900 26L900 52L900 52L900 78L900 78L900 104L900 104L900 130L900 130L900 157L900 157L900 183L900 183L900 209L900 209L900 235L900 235L900 261L900 261L900 287L900 287L900 313L900 313L900 339L900 339L900 365L900 365L900 391L900 391L900 417L900 417L900 443L900 443L900 470L900 470L900 496L900 496L900 522L900 522L900 548L900 548L900 574L900 574L900 600L900 600Z" fill="#5090f0"></path></svg>